<svg xmlns="http://www.w3.org/2000/svg" xmlns:xlink="http://www.w3.org/1999/xlink" id="a" viewBox="0 0 216.47 192.59"><defs><style>.d{fill:url(#b);}.e,.f{fill:none;}.g{fill:#00b4e0;}.h{fill:#e3097e;}.f,.i,.j{stroke:#193f70;stroke-linecap:round;stroke-linejoin:round;}.f,.j{stroke-width:5px;}.i{fill:#fff;stroke-width:4.5px;}.j{fill:url(#c);}</style><linearGradient id="b" x1="53.47" y1="153.64" x2="53.47" y2="11.7" gradientTransform="matrix(1, 0, 0, 1, 0, 0)" gradientUnits="userSpaceOnUse"><stop offset="0" stop-color="#fff"/><stop offset="1" stop-color="#c4e3f3"/></linearGradient><linearGradient id="c" x1="138.74" y1="184.69" x2="166.37" y2="136.84" gradientTransform="matrix(1, 0, 0, 1, 0, 0)" gradientUnits="userSpaceOnUse"><stop offset="0" stop-color="#fff"/><stop offset="1" stop-color="#abe1fa"/></linearGradient></defs><rect class="d" x="10.4" y="9.95" width="86.15" height="150.57"/><polyline class="f" points="2.5 171.48 2.5 2.5 104.01 2.5 104.01 26.57"/><path class="e" d="M72.37,79.86c-7.04,7.82-17.21,29.1-18.52,38.66-.48,3.49,.39,7.27,2.81,10.77h-.02s-10.14,31.79-13.35,43.74c-.62,2.31-2.01,8.32,4.31,10.41,6.71,2.22,8.59-1.96,9.7-4.16,3.58-7.04,15.71-34,15.73-34.04,4.4,4.08,8.05,7.45,8.05,7.45,0,0-3.87,22.05-4.88,29.12-.33,2.28-.38,5.97,4.69,7.94,4.02,1.57,8.49-.15,9.61-3.14,3.71-9.87,11.12-36,11.12-36,.55-2.03,.56-4.18-.55-5.63l-20.13-26.84,8.41-16.59,14.33,12.7c.92,.88,2.37,1.94,3.87,2.25l23.24,3.16c2.12,.35,5.3-1.26,6.17-4.97,1.21-5.16-2.08-8.18-4.04-8.57l-20.01-4.16s-12.82-15.82-20.03-23.06c-2.47-2.52-5.79-3.54-9.11-3.54-4.55,0-9.1,1.91-11.41,4.48"/><g><polyline class="i" points="142.52 135.41 142.52 119.71 136.15 116.12"/><path class="i" d="M179.46,92.4c7.9,0,14.32-6.42,14.32-14.32s-6.42-14.32-14.32-14.32-14.32,6.42-14.32,14.32,6.42,14.32,14.32,14.32Z"/><path class="i" d="M144.62,118.96c3.9-14.87,10.6-22.76,19.44-22.81,7.04,0,10.45,5.47,12.48,8.75l10.55,17.44c2.44,.67,15.04,4.1,19.79,5.32,2.92,.75,5.87,3.05,5.45,7.24-.42,4.13-3.5,5.61-6.24,5.61s-22.87-2.73-25.87-3.19c-2.52-.39-3.54-1.51-5-3.3-.84-1.03-2.45-3.28-3.99-5.43-.71,4.62-.87,8.69-.89,10.95l23.9,1.81c4.4,.37,5.65,3.28,6.47,5.2l12.77,29.55c1.72,4.07,.39,7.87-3.39,9.7-1.43,.69-2.79,1.04-4.03,1.04-2.25,0-4.2-1.12-5.94-3.41-1.13-1.48-11.31-18.81-13.36-22.29-2.69,.25-12.94,1.16-20.97,1.16-2.32,0-4.3-.07-5.86-.22-15.44-1.46-16.8-12.37-17.24-15.96-1.56-12.49,1.08-23.96,1.92-27.17Z"/><path class="i" d="M83.82,55.76c0,8.59,6.96,15.55,15.55,15.55s15.54-6.96,15.54-15.55-6.96-15.54-15.54-15.54-15.55,6.96-15.55,15.54Z"/><path class="i" d="M56.32,129.27s-10.13,31.8-13.35,43.75c-.62,2.31-2.01,8.32,4.31,10.41,6.71,2.22,8.59-1.96,9.7-4.16,3.58-7.05,15.73-34.04,15.73-34.04"/><path class="i" d="M132.6,106.13l-20.01-4.16s-12.82-15.82-20.03-23.06c-5.85-5.98-16.52-3.5-20.52,.95-7.04,7.82-17.21,29.1-18.52,38.66-.64,4.6,1.07,9.69,5.58,14,5.04,4.82,21.66,20.17,21.66,20.17,0,0-3.87,22.05-4.88,29.12-.33,2.29-.38,5.97,4.69,7.94,4.02,1.57,8.49-.15,9.61-3.14,3.71-9.87,11.12-36,11.12-36,.55-2.03,.56-4.18-.55-5.63l-20.13-26.84,8.41-16.59,14.33,12.71c.92,.88,2.37,1.94,3.87,2.25l23.24,3.16c2.12,.35,5.3-1.26,6.17-4.97,1.21-5.16-2.08-8.18-4.04-8.57Z"/></g><path class="e" d="M125.18,160.97c0,15.25,12.37,27.62,27.62,27.62s27.62-12.37,27.62-27.62-12.37-27.62-27.62-27.62-27.62,12.37-27.62,27.62"/><path class="j" d="M180.18,160.76c0,15.25-12.37,27.62-27.62,27.62s-27.62-12.37-27.62-27.62,12.37-27.62,27.62-27.62,27.62,12.37,27.62,27.62Z"/><path class="g" d="M167.4,160.76c0,8.2-6.65,14.84-14.85,14.84s-14.84-6.65-14.84-14.84,6.65-14.84,14.84-14.84,14.85,6.65,14.85,14.84"/><polygon class="h" points="66.6 37.31 66.6 67.49 59.32 67.49 59.32 55.37 47.68 55.37 47.68 67.49 40.35 67.49 40.35 37.31 47.68 37.31 47.68 48.39 59.32 48.39 59.32 37.31 66.6 37.31"/><line class="f" x1="19.06" y1="104.84" x2="40.57" y2="104.84"/></svg>